<?xml version="1.0" encoding="utf-8"?>
<svg id="Layer_1" width="64px" height="64px" viewBox="0 0 64 64" xmlns="http://www.w3.org/2000/svg">
  <path d="M 59.627 46.356" fill="#FFFFFF" stroke="#241F20" stroke-miterlimit="10" stroke-width="2"/>
  <g>
    <path d="M31.229,10.267c-14.832,0-26.856,12.023-26.856,26.857c0,14.83,12.024,26.855,26.856,26.855    s26.855-12.025,26.855-26.855C58.084,22.29,46.061,10.267,31.229,10.267z M31.229,60.56c-12.945,0-23.438-10.493-23.438-23.436    c0-12.945,10.492-23.438,23.438-23.438c12.941,0,23.438,10.492,23.438,23.438C54.666,50.066,44.17,60.56,31.229,60.56z" fill="#241F20"/>
  </g>
  <g>
    <path d="M37.75,0.021H24.706c-1.013,0-1.842,0.813-1.842,1.842v1.52c0,1.028,0.829,1.856,1.842,1.856h0.645v1.615    c0.03,0.429,0.234,1.248,1.391,1.106c0,0,0.001,0,0.003,0c1.765-0.267,5.042-0.574,8.794-0.021c0.006,0.001,0.008,0,0.016,0.001    c1.292,0.15,1.519-0.746,1.551-1.212v-1.49h0.645c1.014,0,1.842-0.828,1.842-1.856v-1.52C39.592,0.834,38.764,0.021,37.75,0.021z" fill="#241F20"/>
  </g>
  <g>
    <path d="M51.617,15.888c0,0,1.111,1.037,2.041-0.293c0-0.001,0-0.001,0-0.001l1.117-1.599    c0.477-0.688-0.141-1.164-0.203-1.211l-8.279-5.785l0,0c-0.51-0.354-0.848-0.139-1.027,0.061l-0.146,0.213l-1.213,1.734    c0,0-0.775,1.192,0.293,1.743c0.002,0.001,0.002,0.001,0.002,0.002c1.58,0.771,4.557,2.432,7.412,5.139L51.617,15.888z" fill="#241F20"/>
  </g>
  <path d="M 31.313 37.18 L 31.313 17.647 C 42.11 17.653 50.865 26.39 50.901 37.18 Z" style="fill: rgb(36, 31, 32);"/>
</svg>